<svg width="163" height="120" viewBox="0 0 163 120" fill="none" xmlns="http://www.w3.org/2000/svg">
<path d="M22.3917 104.208C21.1674 95.9208 23.3764 87.3597 25.4092 82.5304C26.241 80.5542 28.4938 79.8657 30.4765 80.6718L42.0819 85.3902C44.2859 86.2862 45.4449 88.7087 44.7617 90.9914L35.618 121.539C34.4493 125.444 29.384 125.944 27.8033 122.196C25.5321 116.811 23.2895 110.287 22.3917 104.208Z" fill="#D9D9D9"/>
<path d="M155.814 82.4534C151.1 111.487 84.0289 121.717 54.6745 117.055C22.1828 114.069 3.15642 89.0779 7.86996 60.044C12.5835 31.0101 37.3664 20.5876 66.7208 25.2497C94.7069 29.6945 120.431 73.7596 151.313 81.7386C152.823 82.1287 154.268 82.2585 155.814 82.4534Z" fill="#D9D9D9"/>
<path d="M36.5655 80.9935C20.7274 79.7334 12.2253 81.5117 9.74632 83.6911C9.6775 84.115 9.53674 88.9356 16.2963 98.8663C23.9291 110.08 41.5743 115.818 60.679 117.982C75.9628 119.714 102.958 115.528 115.313 111.873C96.979 95.4798 59.8973 82.8497 36.5655 80.9935Z" fill="#F1EDED"/>
<ellipse cx="2.38736" cy="2.36196" rx="2.38736" ry="2.36196" transform="matrix(0.987489 0.156834 -0.16027 0.987212 58.4722 71.9946)" fill="black"/>
<path d="M74.6399 84.1299C74.1933 86.8811 70.7038 86.549 66.4427 85.8722C62.1816 85.1955 60.4136 83.0618 60.8602 80.3106C61.3069 77.5594 63.7302 75.6565 67.9913 76.3332C72.2524 77.01 74.6149 82.93 74.6399 84.1299Z" fill="#FBECEC"/>
<path d="M98.8158 54.6028C98.6434 54.3043 98.7517 53.9245 99.0557 53.7616L102.151 52.103C102.472 51.931 102.872 52.0195 103.091 52.3106V52.3106C103.372 52.6842 103.235 53.2183 102.81 53.4107L99.6073 54.8572C99.3178 54.988 98.9746 54.8777 98.8158 54.6028V54.6028Z" fill="#E2E1E1"/>
<path d="M104.706 67.063C104.534 66.7645 104.642 66.3847 104.946 66.2218L108.041 64.5632C108.362 64.3912 108.763 64.4797 108.982 64.7709V64.7709C109.262 65.1444 109.126 65.6785 108.7 65.8709L105.497 67.3174C105.208 67.4482 104.865 67.3379 104.706 67.063V67.063Z" fill="#E2E1E1"/>
<path d="M98.7 57.51C98.7932 57.1787 99.1416 56.9872 99.4713 57.086L102.845 58.0965C103.193 58.2007 103.41 58.5436 103.355 58.9021V58.9021C103.284 59.3625 102.805 59.6429 102.369 59.4794L99.0719 58.2442C98.7755 58.1332 98.6143 57.8149 98.7 57.51V57.51Z" fill="#E2E1E1"/>
<path d="M104.28 56.3018C104.373 55.9705 104.722 55.779 105.051 55.8777L108.426 56.8883C108.773 56.9924 108.99 57.3353 108.935 57.6938V57.6938C108.864 58.1543 108.385 58.4347 107.949 58.2711L104.652 57.036C104.356 56.9249 104.194 56.6066 104.28 56.3018V56.3018Z" fill="#E2E1E1"/>
<path d="M107.236 61.1199C107.329 60.7886 107.678 60.5971 108.007 60.6958L111.382 61.7064C111.729 61.8105 111.946 62.1535 111.891 62.5119V62.5119C111.82 62.9724 111.341 63.2528 110.905 63.0893L107.608 61.8541C107.312 61.743 107.15 61.4247 107.236 61.1199V61.1199Z" fill="#E2E1E1"/>
<path d="M105.549 71.5073C105.642 71.1761 105.991 70.9845 106.32 71.0833L109.695 72.0938C110.042 72.198 110.259 72.5409 110.204 72.8994V72.8994C110.133 73.3598 109.654 73.6402 109.218 73.4767L105.921 72.2415C105.625 72.1305 105.463 71.8122 105.549 71.5073V71.5073Z" fill="#E2E1E1"/>
<path d="M101.243 61.4729C101.337 61.1416 101.685 60.9501 102.015 61.0489L105.389 62.0594C105.737 62.1636 105.954 62.5065 105.899 62.865V62.865C105.828 63.3254 105.349 63.6058 104.912 63.4423L101.615 62.2071C101.319 62.0961 101.158 61.7778 101.243 61.4729V61.4729Z" fill="#E2E1E1"/>
<path d="M109.385 68.2022C109.478 67.8709 109.827 67.6794 110.156 67.7781L113.531 68.7886C113.878 68.8928 114.095 69.2357 114.04 69.5942V69.5942C113.969 70.0547 113.49 70.3351 113.054 70.1715L109.757 68.9364C109.461 68.8253 109.299 68.507 109.385 68.2022V68.2022Z" fill="#E2E1E1"/>
<rect x="66.2549" y="88.8987" width="3.24742" height="23.1405" rx="1.29897" transform="rotate(-28.5668 66.2549 88.8987)" fill="#0D0441"/>
<path d="M85.2787 107.859C93.578 109.001 102.117 106.707 106.926 104.627C108.894 103.775 109.56 101.516 108.734 99.5412L103.901 87.9832C102.983 85.7882 100.549 84.6532 98.2734 85.3591L67.8175 94.8049C63.9247 96.0123 63.4751 101.082 67.2382 102.626C72.6454 104.844 79.1919 107.021 85.2787 107.859Z" fill="#D9D9D9"/>
<circle cx="60.449" cy="74.7967" r="14.9381" fill="white" fillOpacity="0.4" stroke="#0D0441" stroke-width="2.59794"/>
<path d="M56.6981 5.64014C56.9027 5.05575 57.4915 4.69708 58.1046 4.78318L74.7196 7.11614C75.3485 7.20444 75.8213 7.7344 75.8376 8.36918L76.361 28.7742C76.3816 29.5766 75.6767 30.2055 74.8819 30.0939L50.9561 26.7344C50.1443 26.6204 49.6398 25.7923 49.9108 25.0186L56.6981 5.64014Z" fill="#75E4DE"/>
<ellipse cx="62.1705" cy="27.4018" rx="26.4222" ry="1.69937" transform="rotate(7.99283 62.1705 27.4018)" fill="url(#paint0_linear_25_616)"/>
<path d="M60.4206 12.7184L62.612 13.0408C62.8229 11.6072 63.8651 10.9236 65.3192 11.1376C66.7938 11.3546 67.5449 12.3648 67.334 13.7985C67.0175 15.9489 65.1754 16.0963 62.8611 15.7558L62.1852 15.6563L61.8145 18.8868L63.8421 19.1852L64.1621 17.5793C66.9065 17.9832 69.1414 17.0147 69.5663 14.127C69.9581 11.4645 68.3325 9.57227 65.5881 9.16842C62.8027 8.75854 60.7647 10.2372 60.4206 12.7184ZM63.8261 22.2796C63.9497 21.4399 63.3907 20.6881 62.5715 20.5676C61.7318 20.444 60.98 21.0029 60.8564 21.8426C60.7329 22.6823 61.2918 23.4342 62.1315 23.5577C62.9507 23.6783 63.7025 23.1193 63.8261 22.2796Z" fill="#16807A"/>
<defs>
<linearGradient id="paint0_linear_25_616" x1="62.1705" y1="25.7024" x2="62.1705" y2="29.1011" gradientUnits="userSpaceOnUse">
<stop stop-color="#66CFCA"/>
<stop offset="1" stop-color="#3EBAB3"/>
</linearGradient>
</defs>
</svg>
