<svg width="244" height="179" viewBox="0 0 244 179" fill="none" xmlns="http://www.w3.org/2000/svg">
<path d="M124.643 72.9187C130.968 68.3599 89.9137 57.9909 80.1824 47.5824C79.4695 46.8198 79.1899 45.7844 79.2115 44.7406L79.7177 20.3025C79.8185 15.439 73.619 13.3102 70.7108 17.2097L56.4897 36.2777C54.9561 38.334 52.1151 38.8961 49.9139 37.5788L27.0262 23.8805C22.792 21.3463 17.836 25.827 19.9319 30.2944L35.847 64.2174C36.7057 66.0478 36.3776 68.2151 35.0156 69.7093L12.1453 94.7995C8.78908 98.4815 12.3058 104.319 17.1406 103.117C29.1902 100.122 42.135 97.1028 45.6588 96.941C52.315 96.6354 68.6478 117.625 74.1876 123.152C78.1275 127.082 79.7394 105.856 80.1815 91.0779C80.2661 88.2487 82.6437 86.0203 85.4628 85.7675C100.424 84.4259 120.785 75.6993 124.643 72.9187Z" fill="#FFABA0"/>
<path d="M96.3817 32.5989C108.975 31.1456 136.536 30.5004 146.04 39.5468C157.92 50.8548 164.201 78.2144 186.895 77.7195C209.589 77.2246 226.244 80.1993 235.423 90.4095" stroke="#F9D2A5" stroke-width="4" stroke-linecap="round"/>
<path d="M89.5345 118.675C97.5272 116.925 116.459 116.105 128.247 126.82C142.981 140.214 145.342 142.377 161.196 143.452C190.696 145.453 193.836 135.337 207.725 143.296C218.836 149.664 228.414 155.933 231.814 158.271" stroke="#F9D2A5" stroke-width="4" stroke-linecap="round"/>
<path d="M124.941 82.8053C132.725 85.1362 150.904 91.6183 161.348 98.8992C174.402 108 185.612 105.244 198.194 104.805C210.776 104.365 230.451 116.99 241.529 126.399" stroke="#F9D2A5" stroke-width="4" stroke-linecap="round"/>
<path d="M76 69C76 76.732 69.732 83 62 83C54.268 83 48 76.732 48 69C48 61.268 54.268 53 62 53C69.732 53 76 61.268 76 69Z" fill="#FBC9C3"/>
<path d="M76 69C76 76.732 69.732 83 62 83C54.268 83 48 76.732 48 69C48 61.268 54.268 53 62 53C69.732 53 76 61.268 76 69Z" fill="#FBC9C3"/>
<path d="M75 37.9333C75 41.2839 72.3137 44 69 44C65.6863 44 63 41.2839 63 37.9333C63 34.5828 65.6863 31 69 31C72.3137 31 75 34.5828 75 37.9333Z" fill="#FBC9C3"/>
<path d="M75 37.9333C75 41.2839 72.3137 44 69 44C65.6863 44 63 41.2839 63 37.9333C63 34.5828 65.6863 31 69 31C72.3137 31 75 34.5828 75 37.9333Z" fill="#FBC9C3"/>
<path d="M75 99.9333C75 103.284 72.3137 106 69 106C65.6863 106 63 103.284 63 99.9333C63 96.5828 65.6863 93 69 93C72.3137 93 75 96.5828 75 99.9333Z" fill="#FBC9C3"/>
<path d="M75 99.9333C75 103.284 72.3137 106 69 106C65.6863 106 63 103.284 63 99.9333C63 96.5828 65.6863 93 69 93C72.3137 93 75 96.5828 75 99.9333Z" fill="#FBC9C3"/>
<path d="M105 71.9333C105 75.2839 102.314 78 99 78C95.6863 78 93 75.2839 93 71.9333C93 68.5828 95.6863 65 99 65C102.314 65 105 68.5828 105 71.9333Z" fill="#FBC9C3"/>
<path d="M105 71.9333C105 75.2839 102.314 78 99 78C95.6863 78 93 75.2839 93 71.9333C93 68.5828 95.6863 65 99 65C102.314 65 105 68.5828 105 71.9333Z" fill="#FBC9C3"/>
<path d="M46 45.9333C46 49.2839 43.3137 52 40 52C36.6863 52 34 49.2839 34 45.9333C34 42.5828 36.6863 39 40 39C43.3137 39 46 42.5828 46 45.9333Z" fill="#FBC9C3"/>
<path d="M46 45.9333C46 49.2839 43.3137 52 40 52C36.6863 52 34 49.2839 34 45.9333C34 42.5828 36.6863 39 40 39C43.3137 39 46 42.5828 46 45.9333Z" fill="#FBC9C3"/>
<path d="M39 86.9333C39 90.2839 36.3137 93 33 93C29.6863 93 27 90.2839 27 86.9333C27 83.5828 29.6863 80 33 80C36.3137 80 39 83.5828 39 86.9333Z" fill="#FBC9C3"/>
<path d="M39 86.9333C39 90.2839 36.3137 93 33 93C29.6863 93 27 90.2839 27 86.9333C27 83.5828 29.6863 80 33 80C36.3137 80 39 83.5828 39 86.9333Z" fill="#FBC9C3"/>
</svg>
